<?xml version="1.0" standalone="no"?>
<!DOCTYPE svg PUBLIC "-//W3C//DTD SVG 20010904//EN"
 "http://www.w3.org/TR/2001/REC-SVG-20010904/DTD/svg10.dtd">
<svg version="1.0" xmlns="http://www.w3.org/2000/svg"
 width="640.000000pt" height="640.000000pt" viewBox="0 0 640.000000 640.000000"
 preserveAspectRatio="xMidYMid meet">
<metadata>
Created by potrace 1.14, written by Peter Selinger 2001-2017
</metadata>
<g transform="translate(0.000000,640.000000) scale(0.100000,-0.100000)"
fill="#000000" stroke="none">
<path d="M2978 6395 c-1 -2 -36 -6 -77 -9 -41 -4 -84 -9 -95 -11 -12 -2 -41
-7 -66 -10 -46 -5 -187 -30 -227 -40 -13 -3 -31 -7 -40 -9 -117 -27 -303 -84
-413 -127 -47 -18 -88 -32 -92 -31 -5 1 -8 -3 -8 -8 0 -6 -6 -10 -14 -10 -20
0 -217 -95 -295 -142 -34 -21 -65 -38 -67 -38 -14 0 -300 -195 -324 -220 -3
-3 -21 -17 -40 -31 -19 -15 -45 -35 -57 -45 -12 -11 -41 -35 -64 -54 -57 -47
-220 -209 -294 -294 -33 -38 -65 -73 -70 -80 -27 -30 -163 -214 -174 -234 -7
-13 -20 -32 -29 -43 -60 -70 -229 -393 -300 -574 -21 -55 -43 -109 -47 -120
-5 -11 -9 -22 -10 -25 -1 -3 -4 -12 -8 -20 -41 -106 -114 -422 -141 -610 -29
-197 -29 -618 -1 -820 59 -425 198 -841 394 -1180 17 -30 37 -65 43 -77 6 -13
15 -23 20 -23 4 0 8 -5 8 -10 0 -9 58 -103 83 -135 4 -5 26 -35 48 -65 71 -97
83 -113 149 -189 112 -132 372 -383 429 -415 9 -5 22 -18 29 -28 7 -10 17 -18
22 -18 9 0 22 -9 64 -45 7 -5 19 -14 28 -20 8 -5 42 -28 74 -49 104 -70 248
-156 260 -156 7 0 14 -4 16 -8 8 -20 422 -202 459 -202 10 0 20 -4 23 -9 3 -5
27 -14 53 -21 27 -7 53 -14 58 -16 178 -52 359 -90 545 -112 134 -17 766 -7
840 13 8 2 33 6 55 10 73 10 149 25 203 39 28 8 52 12 52 10 0 -3 8 0 19 5 10
6 31 13 47 15 16 3 63 17 104 31 41 14 83 27 93 30 67 16 411 167 468 207 14
9 29 15 33 11 3 -3 6 -1 6 5 0 7 4 12 10 12 20 0 315 190 366 235 6 6 23 19
38 30 76 55 154 125 290 260 151 151 169 170 256 285 36 47 68 87 71 90 12 10
146 216 170 260 13 25 27 47 30 50 15 12 141 275 187 390 88 221 163 488 187
665 3 17 7 47 11 68 22 137 29 243 29 462 -1 191 -6 311 -20 397 -2 13 -6 46
-10 73 -3 28 -13 82 -20 120 -8 39 -16 81 -19 95 -5 29 -33 141 -46 185 -5 17
-19 62 -30 100 -12 39 -25 79 -30 90 -5 11 -27 69 -50 128 -46 121 -123 282
-189 397 -43 75 -161 261 -171 270 -3 3 -24 30 -45 60 -63 87 -187 235 -246
293 -16 15 -29 33 -29 39 0 6 -2 9 -5 6 -3 -2 -41 29 -84 71 -86 83 -169 156
-204 180 -12 8 -24 17 -27 20 -11 12 -88 69 -150 111 -36 24 -66 47 -68 52 -2
4 -8 8 -14 8 -5 0 -29 14 -53 30 -24 17 -46 30 -50 30 -3 0 -24 12 -47 27 -58
36 -300 156 -315 156 -7 0 -13 4 -13 9 0 4 -8 8 -18 8 -10 0 -22 4 -27 8 -17
15 -279 107 -331 117 -11 2 -19 4 -19 5 0 1 -7 3 -15 5 -8 1 -44 11 -80 20
-36 10 -74 19 -85 21 -11 1 -31 5 -45 8 -14 3 -36 8 -50 11 -23 4 -38 7 -117
19 -16 3 -53 8 -83 11 -30 4 -66 9 -80 11 -30 6 -527 14 -532 9z"/>
</g>
</svg>
